# xmcd
#
# Track frame offsets:
#	150
#	14273
#	27061
#	39981
#	55882
#	70882
#	84934
#	99619
#	112229
#	126894
#	140884
#	156627
#	169605
#	184307
#	198289
#	212081
#	228002
#	246687
#	266885
#	284525
#	302592
#	320386
#	337269
#
# Disc length: 4789 seconds
#
# Revision: 4294836219
# Processed by: cddbd v1.5.2PL0 Copyright (c) Steve Scherf et al.
# Submitted via: EZCDAudioConverter 7.1.5.1
#
DISCID=5e12b317
DTITLE=James Brown - The 50th Anniversary Collection [CD2]
DYEAR=2003
DGENRE=Soul
TTITLE0=It's A New Day, Part 1
TTITLE1=(Get Up I Feel Like Being A) Sex Machine, Part 1
TTITLE2=Super Bad, Part 1
TTITLE3=Get Up, Get Into It, Get Involved, Part 1
TTITLE4=Soul Power, Part 1
TTITLE5=Hot Pants (She Got To Use What She Got To Get What She Wants), Part 1
TTITLE6=Make It Funky, Part 1
TTITLE7=I'm A Greedy Man, Part 1
TTITLE8=Talkin' Loud And Sayin' Nothing, Part 1
TTITLE9=There It Is, Part 1
TTITLE10=Get On The Good Foot, Part 1
TTITLE11=I Got Ants In My Pants, Part 1
TTITLE12=Down And Out In New York City
TTITLE13=Sexy, Sexy, Sexy
TTITLE14=Doing It To Death, Part 1
TTITLE15=The Payback, Part 1
TTITLE16=My Thang
TTITLE17=Papa Don't Take No Mess, Part 1
TTITLE18=Funky President (People It's Bad)
TTITLE19=Get Up Offa That Thing
TTITLE20=Bodyheat, Part 1
TTITLE21=It's Too Funky In Here
TTITLE22=Static, Part 1 and Part 2
EXTD=
EXTT0=
EXTT1=
EXTT2=
EXTT3=
EXTT4=
EXTT5=
EXTT6=
EXTT7=
EXTT8=
EXTT9=
EXTT10=
EXTT11=
EXTT12=
EXTT13=
EXTT14=
EXTT15=
EXTT16=
EXTT17=
EXTT18=
EXTT19=
EXTT20=
EXTT21=
EXTT22=
PLAYORDER=
